22<svg width="12" height="12" xmlns="http://www.w3.org/2000/svg"><g fill="#00D8FF" fill-rule="evenodd"><path d="M7.069 5.827a1.071 1.071 0 0 1-1.071 1.07 1.071 1.071 0 0 1-1.071-1.07 1.071 1.071 0 0 1 2.142 0z"/><path fill-rule="nonzero" d="M5.998 3.905c1.384 0 2.699.195 3.698.539 1.11.382 1.787.947 1.787 1.382 0 .464-.731 1.066-1.918 1.459-.946.314-2.21.484-3.567.484-1.425 0-2.704-.167-3.639-.486-.585-.2-1.068-.46-1.399-.744-.297-.255-.448-.507-.448-.713 0-.437.652-.994 1.738-1.372 1-.349 2.347-.549 3.748-.549m0-.513c-1.456 0-2.859.209-3.917.578C.811 4.413 0 5.106 0 5.826c0 .744.871 1.489 2.194 1.942.994.339 2.327.514 3.804.514 1.408 0 2.726-.178 3.728-.51 1.375-.456 2.27-1.192 2.27-1.946 0-.722-.837-1.421-2.133-1.867-1.057-.363-2.427-.567-3.865-.567m-1.674 1.48c.691-1.199 1.517-2.241 2.315-2.935.885-.77 1.713-1.075 2.09-.857.402.231.558 1.166.306 2.391-.201.975-.685 2.156-1.363 3.331-.712 1.235-1.496 2.259-2.24 2.909-.465.407-.931.696-1.342.841-.37.13-.664.134-.842.031-.378-.218-.535-1.06-.321-2.19.198-1.041.697-2.307 1.397-3.521m-.444-.256c-.727 1.261-1.247 2.581-1.456 3.681-.251 1.322-.055 2.371.568 2.73.644.372 1.725-.01 2.778-.93.791-.692 1.608-1.759 2.346-3.039.703-1.219 1.207-2.45 1.42-3.484.293-1.419.102-2.562-.551-2.938-.626-.361-1.649.015-2.683.915-.843.733-1.704 1.819-2.422 3.065m.446 2.189c-.694-1.198-1.184-2.433-1.387-3.471-.225-1.152-.075-2.021.301-2.239.402-.232 1.289.099 2.224.929.745.662 1.526 1.671 2.206 2.845.714 1.233 1.21 2.424 1.402 3.393.12.606.137 1.154.058 1.583-.072.385-.215.642-.393.745-.378.218-1.187-.066-2.058-.816-.803-.691-1.651-1.756-2.353-2.969m-.444.257c.729 1.26 1.613 2.37 2.462 3.1 1.02.877 2.027 1.232 2.65.871.643-.372.852-1.499.581-2.871-.204-1.031-.721-2.271-1.461-3.55-.706-1.218-1.52-2.27-2.309-2.971C4.721.679 3.636.274 2.984.651c-.626.362-.811 1.437-.548 2.782.215 1.096.726 2.384 1.446 3.629"/></g></svg>